<mxfile host="Electron" agent="Mozilla/5.0 (X11; Linux x86_64) AppleWebKit/537.36 (KHTML, like Gecko) draw.io/26.2.15 Chrome/134.0.6998.205 Electron/35.4.0 Safari/537.36" version="26.2.15">
  <diagram name="Page-1" id="8QfXOVJgQPrLaZHKxlZy">
    <mxGraphModel dx="2276" dy="965" grid="1" gridSize="10" guides="1" tooltips="1" connect="1" arrows="1" fold="1" page="1" pageScale="1" pageWidth="850" pageHeight="1100" math="0" shadow="0">
      <root>
        <mxCell id="0" />
        <mxCell id="1" parent="0" />
        <mxCell id="d7aWckMv-QSlAlafoAoy-1" value="Orchestrator&lt;br&gt;Canister" style="rounded=1;whiteSpace=wrap;html=1;fontSize=16;" parent="1" vertex="1">
          <mxGeometry x="355" y="255" width="140" height="70" as="geometry" />
        </mxCell>
        <mxCell id="ym4y3IAvLvMuyocDzo3I-2" style="edgeStyle=orthogonalEdgeStyle;rounded=0;orthogonalLoop=1;jettySize=auto;html=1;exitX=0.5;exitY=0.5;exitDx=0;exitDy=0;exitPerimeter=0;entryX=1;entryY=0.5;entryDx=0;entryDy=0;" edge="1" parent="1" source="d7aWckMv-QSlAlafoAoy-2" target="ym4y3IAvLvMuyocDzo3I-1">
          <mxGeometry relative="1" as="geometry" />
        </mxCell>
        <mxCell id="d7aWckMv-QSlAlafoAoy-2" value="User" style="shape=umlActor;verticalLabelPosition=bottom;verticalAlign=top;html=1;outlineConnect=0;" parent="1" vertex="1">
          <mxGeometry x="120" y="260" width="30" height="60" as="geometry" />
        </mxCell>
        <mxCell id="d7aWckMv-QSlAlafoAoy-3" value="User&lt;br&gt;Canister" style="rounded=1;whiteSpace=wrap;html=1;fontSize=16;align=center;verticalAlign=top;" parent="1" vertex="1">
          <mxGeometry x="70" y="425" width="140" height="140" as="geometry" />
        </mxCell>
        <mxCell id="d7aWckMv-QSlAlafoAoy-4" value="File Storage" style="shape=cylinder3;whiteSpace=wrap;html=1;boundedLbl=1;backgroundOutline=1;size=15;" parent="1" vertex="1">
          <mxGeometry x="110" y="475" width="60" height="80" as="geometry" />
        </mxCell>
        <mxCell id="d7aWckMv-QSlAlafoAoy-9" style="edgeStyle=orthogonalEdgeStyle;rounded=0;orthogonalLoop=1;jettySize=auto;html=1;exitX=0;exitY=0.5;exitDx=0;exitDy=0;entryX=1;entryY=0.5;entryDx=0;entryDy=0;" parent="1" source="d7aWckMv-QSlAlafoAoy-6" target="d7aWckMv-QSlAlafoAoy-3" edge="1">
          <mxGeometry relative="1" as="geometry" />
        </mxCell>
        <mxCell id="d7aWckMv-QSlAlafoAoy-28" style="edgeStyle=orthogonalEdgeStyle;rounded=0;orthogonalLoop=1;jettySize=auto;html=1;exitX=1;exitY=0.5;exitDx=0;exitDy=0;entryX=1;entryY=0.5;entryDx=0;entryDy=0;" parent="1" source="d7aWckMv-QSlAlafoAoy-6" target="d7aWckMv-QSlAlafoAoy-15" edge="1">
          <mxGeometry relative="1" as="geometry">
            <Array as="points">
              <mxPoint x="690" y="495" />
              <mxPoint x="690" y="110" />
            </Array>
          </mxGeometry>
        </mxCell>
        <mxCell id="d7aWckMv-QSlAlafoAoy-6" value="Orbit Station" style="rounded=1;whiteSpace=wrap;html=1;fontSize=16;" parent="1" vertex="1">
          <mxGeometry x="355" y="460" width="140" height="70" as="geometry" />
        </mxCell>
        <mxCell id="d7aWckMv-QSlAlafoAoy-7" value="" style="endArrow=classic;html=1;rounded=0;exitX=0.5;exitY=0.5;exitDx=0;exitDy=0;exitPerimeter=0;entryX=0.5;entryY=0;entryDx=0;entryDy=0;" parent="1" source="d7aWckMv-QSlAlafoAoy-2" target="d7aWckMv-QSlAlafoAoy-3" edge="1">
          <mxGeometry width="50" height="50" relative="1" as="geometry">
            <mxPoint x="100" y="510" as="sourcePoint" />
            <mxPoint x="150" y="460" as="targetPoint" />
          </mxGeometry>
        </mxCell>
        <mxCell id="d7aWckMv-QSlAlafoAoy-8" value="1 User has 1 User Canister&lt;br&gt;&lt;br&gt;The user uploads file to the user canister to its&lt;br&gt;own storage.&lt;div&gt;The user can retrieve their file from the canister&lt;br&gt;and can remove them.&lt;br&gt;The user can share files&lt;/div&gt;" style="text;html=1;align=left;verticalAlign=middle;resizable=0;points=[];autosize=1;strokeColor=none;fillColor=none;" parent="1" vertex="1">
          <mxGeometry x="-110" y="310" width="270" height="110" as="geometry" />
        </mxCell>
        <mxCell id="d7aWckMv-QSlAlafoAoy-10" value="Deploys" style="text;html=1;align=center;verticalAlign=middle;resizable=0;points=[];autosize=1;strokeColor=none;fillColor=none;" parent="1" vertex="1">
          <mxGeometry x="250" y="460" width="70" height="30" as="geometry" />
        </mxCell>
        <mxCell id="d7aWckMv-QSlAlafoAoy-11" value="" style="endArrow=classic;html=1;rounded=0;exitX=0.5;exitY=1;exitDx=0;exitDy=0;entryX=0.5;entryY=0;entryDx=0;entryDy=0;" parent="1" source="d7aWckMv-QSlAlafoAoy-1" target="d7aWckMv-QSlAlafoAoy-6" edge="1">
          <mxGeometry width="50" height="50" relative="1" as="geometry">
            <mxPoint x="520" y="280" as="sourcePoint" />
            <mxPoint x="570" y="230" as="targetPoint" />
          </mxGeometry>
        </mxCell>
        <mxCell id="d7aWckMv-QSlAlafoAoy-12" value="Requests to deploy user canister&lt;br&gt;Requests to deploy an Organization Canister" style="text;html=1;align=center;verticalAlign=middle;resizable=0;points=[];autosize=1;strokeColor=none;fillColor=none;" parent="1" vertex="1">
          <mxGeometry x="410" y="355" width="260" height="40" as="geometry" />
        </mxCell>
        <mxCell id="d7aWckMv-QSlAlafoAoy-13" value="" style="endArrow=classic;html=1;rounded=0;exitX=0.5;exitY=0.5;exitDx=0;exitDy=0;exitPerimeter=0;entryX=0;entryY=0.5;entryDx=0;entryDy=0;" parent="1" source="d7aWckMv-QSlAlafoAoy-2" target="d7aWckMv-QSlAlafoAoy-1" edge="1">
          <mxGeometry width="50" height="50" relative="1" as="geometry">
            <mxPoint x="260" y="190" as="sourcePoint" />
            <mxPoint x="310" y="140" as="targetPoint" />
          </mxGeometry>
        </mxCell>
        <mxCell id="d7aWckMv-QSlAlafoAoy-14" value="Signs in&lt;br&gt;Get files shared with him" style="text;html=1;align=center;verticalAlign=middle;resizable=0;points=[];autosize=1;strokeColor=none;fillColor=none;" parent="1" vertex="1">
          <mxGeometry x="180" y="230" width="150" height="40" as="geometry" />
        </mxCell>
        <mxCell id="d7aWckMv-QSlAlafoAoy-32" style="edgeStyle=orthogonalEdgeStyle;rounded=0;orthogonalLoop=1;jettySize=auto;html=1;exitX=0.5;exitY=1;exitDx=0;exitDy=0;entryX=0.5;entryY=0;entryDx=0;entryDy=0;" parent="1" source="d7aWckMv-QSlAlafoAoy-15" target="d7aWckMv-QSlAlafoAoy-1" edge="1">
          <mxGeometry relative="1" as="geometry" />
        </mxCell>
        <mxCell id="d7aWckMv-QSlAlafoAoy-15" value="Organization" style="rounded=1;whiteSpace=wrap;html=1;fontSize=16;align=center;verticalAlign=top;" parent="1" vertex="1">
          <mxGeometry x="355" y="40" width="140" height="140" as="geometry" />
        </mxCell>
        <mxCell id="d7aWckMv-QSlAlafoAoy-16" value="File Storage" style="shape=cylinder3;whiteSpace=wrap;html=1;boundedLbl=1;backgroundOutline=1;size=15;" parent="1" vertex="1">
          <mxGeometry x="395" y="90" width="60" height="80" as="geometry" />
        </mxCell>
        <mxCell id="d7aWckMv-QSlAlafoAoy-22" style="edgeStyle=orthogonalEdgeStyle;rounded=0;orthogonalLoop=1;jettySize=auto;html=1;exitX=0;exitY=0.5;exitDx=0;exitDy=0;entryX=0.5;entryY=0;entryDx=0;entryDy=0;entryPerimeter=0;" parent="1" source="d7aWckMv-QSlAlafoAoy-15" target="d7aWckMv-QSlAlafoAoy-2" edge="1">
          <mxGeometry relative="1" as="geometry" />
        </mxCell>
        <mxCell id="d7aWckMv-QSlAlafoAoy-23" value="n User : 1 Organization" style="text;html=1;align=center;verticalAlign=middle;resizable=0;points=[];autosize=1;strokeColor=none;fillColor=none;" parent="1" vertex="1">
          <mxGeometry x="180" y="70" width="150" height="30" as="geometry" />
        </mxCell>
        <mxCell id="d7aWckMv-QSlAlafoAoy-24" value="1 User : 1 Canister" style="text;html=1;align=center;verticalAlign=middle;resizable=0;points=[];autosize=1;strokeColor=none;fillColor=none;" parent="1" vertex="1">
          <mxGeometry x="140" y="360" width="120" height="30" as="geometry" />
        </mxCell>
        <mxCell id="d7aWckMv-QSlAlafoAoy-29" value="Deploys" style="text;html=1;align=center;verticalAlign=middle;resizable=0;points=[];autosize=1;strokeColor=none;fillColor=none;" parent="1" vertex="1">
          <mxGeometry x="540" y="490" width="70" height="30" as="geometry" />
        </mxCell>
        <mxCell id="d7aWckMv-QSlAlafoAoy-30" value="" style="endArrow=classic;html=1;rounded=0;exitX=1;exitY=0;exitDx=0;exitDy=0;entryX=0;entryY=1;entryDx=0;entryDy=0;" parent="1" source="d7aWckMv-QSlAlafoAoy-3" target="d7aWckMv-QSlAlafoAoy-1" edge="1">
          <mxGeometry width="50" height="50" relative="1" as="geometry">
            <mxPoint x="250" y="450" as="sourcePoint" />
            <mxPoint x="300" y="400" as="targetPoint" />
          </mxGeometry>
        </mxCell>
        <mxCell id="d7aWckMv-QSlAlafoAoy-31" value="Index shared files" style="text;html=1;align=center;verticalAlign=middle;resizable=0;points=[];autosize=1;strokeColor=none;fillColor=none;" parent="1" vertex="1">
          <mxGeometry x="260" y="390" width="120" height="30" as="geometry" />
        </mxCell>
        <mxCell id="d7aWckMv-QSlAlafoAoy-33" value="Index shared files" style="text;html=1;align=center;verticalAlign=middle;resizable=0;points=[];autosize=1;strokeColor=none;fillColor=none;" parent="1" vertex="1">
          <mxGeometry x="430" y="200" width="120" height="30" as="geometry" />
        </mxCell>
        <mxCell id="ym4y3IAvLvMuyocDzo3I-4" style="edgeStyle=orthogonalEdgeStyle;rounded=0;orthogonalLoop=1;jettySize=auto;html=1;exitX=0;exitY=0.5;exitDx=0;exitDy=0;entryX=0;entryY=0.5;entryDx=0;entryDy=0;" edge="1" parent="1" source="ym4y3IAvLvMuyocDzo3I-1" target="d7aWckMv-QSlAlafoAoy-3">
          <mxGeometry relative="1" as="geometry" />
        </mxCell>
        <mxCell id="ym4y3IAvLvMuyocDzo3I-6" style="edgeStyle=orthogonalEdgeStyle;rounded=0;orthogonalLoop=1;jettySize=auto;html=1;exitX=0.5;exitY=0;exitDx=0;exitDy=0;entryX=0.25;entryY=0;entryDx=0;entryDy=0;" edge="1" parent="1" source="ym4y3IAvLvMuyocDzo3I-1" target="d7aWckMv-QSlAlafoAoy-1">
          <mxGeometry relative="1" as="geometry">
            <Array as="points">
              <mxPoint x="-20" y="170" />
              <mxPoint x="340" y="170" />
              <mxPoint x="340" y="210" />
              <mxPoint x="390" y="210" />
            </Array>
          </mxGeometry>
        </mxCell>
        <mxCell id="ym4y3IAvLvMuyocDzo3I-7" style="edgeStyle=orthogonalEdgeStyle;rounded=0;orthogonalLoop=1;jettySize=auto;html=1;exitX=0.5;exitY=0;exitDx=0;exitDy=0;entryX=0;entryY=0.75;entryDx=0;entryDy=0;" edge="1" parent="1" source="ym4y3IAvLvMuyocDzo3I-1" target="d7aWckMv-QSlAlafoAoy-15">
          <mxGeometry relative="1" as="geometry" />
        </mxCell>
        <mxCell id="ym4y3IAvLvMuyocDzo3I-1" value="Frontend" style="rounded=1;whiteSpace=wrap;html=1;fontSize=16;" vertex="1" parent="1">
          <mxGeometry x="-90" y="190" width="140" height="70" as="geometry" />
        </mxCell>
        <mxCell id="ym4y3IAvLvMuyocDzo3I-3" value="Interacts" style="text;html=1;align=center;verticalAlign=middle;resizable=0;points=[];autosize=1;strokeColor=none;fillColor=none;" vertex="1" parent="1">
          <mxGeometry x="70" y="190" width="70" height="30" as="geometry" />
        </mxCell>
      </root>
    </mxGraphModel>
  </diagram>
</mxfile>
